<svg height="512pt" viewBox="0 0 512 512.02784" width="512pt" xmlns="http://www.w3.org/2000/svg"><path d="m315.746094 76.828125h43.886718l7.316407 42.664063-43.890625-8.53125zm0 0" fill="#7f8c8d"/><path d="m358.414062 76.828125c80.117188 0 145.066407 64.949219 145.066407 145.066406v247.464844h-290.132813v-247.464844c0-80.117187 64.949219-145.066406 145.066406-145.066406zm0 0" fill="#37474f"/><path d="m315.746094 76.828125c80.121094 0 145.066406 64.949219 145.066406 145.066406v247.464844h-290.132812v-247.464844c0-80.117187 64.949218-145.066406 145.066406-145.066406zm0 0" fill="#607d8b"/><path d="m43.335938 205.253906c-9.757813-25.3125-14.054688-52.40625-12.601563-79.496094 3.601563-63.136718 52.90625-117.195312 119.382813-117.195312 65.953124 0 119.550781 48.636719 119.550781 108.550781 0 31.011719-18.886719 57.675781-36.53125 87.277344l-17.066407 32.546875c-14.773437 33.777344-20.539062 73.429688 5.390626 127.148438-2.882813-1.171876-5.757813-2.332032-8.644532-3.558594-32.113281-13.035156-62.449218-30.082032-90.28125-50.738282-25.574218-19.359374-47.089844-43.5625-63.316406-71.230468zm0 0" fill="#ad1457" fill-rule="evenodd"/><path d="m183.820312 341.359375c-21.457031-10.644531-41.835937-23.335937-60.859374-37.894531-24.601563-18.984375-45.277344-42.566406-60.882813-69.4375l-15.875-33.917969c-9.132813-24.25-13.136719-50.132813-11.765625-76.007813 3.378906-60.015624 50.148438-107.007812 106.46875-107.007812 58.789062 0 106.574219 43.433594 106.574219 96.820312 0 23.722657-13.261719 45.875-28.613281 71.535157-2.285157 3.820312-7.125 12.003906-7.125 12.003906l-18.304688 35.441406-.253906.585938c-15.308594 33.847656-18.613282 71.902343-9.363282 107.878906zm0 0" fill="#e91e63" fill-rule="evenodd"/><path d="m73.316406 230.503906-37.257812 21.257813c-8.8125 5.039062-20.042969 1.984375-25.085938-6.828125-5.042968-8.8125-1.984375-20.042969 6.824219-25.085938l37.257813-21.335937" fill="#e91e63"/><path d="m113.679688 68.378906c.507812-.070312 1.019531-.097656 1.535156-.085937 11.78125 0 21.332031 9.550781 21.332031 21.335937 0 11.78125-9.550781 21.332032-21.332031 21.332032s-21.335938-9.550782-21.335938-21.332032c-.023437-4.027344 1.136719-7.972656 3.328125-11.351562" fill="#fdd834"/><path d="m218.550781 78.277344c2.183594 3.382812 3.339844 7.324218 3.328125 11.351562 0 8.628906-5.195312 16.40625-13.167968 19.707032-7.972657 3.304687-17.148438 1.476562-23.25-4.625-6.101563-6.101563-7.925782-15.277344-4.625-23.246094 3.304687-7.972656 11.082031-13.171875 19.710937-13.171875.515625-.011719 1.027344.015625 1.535156.085937" fill="#fdd834"/><path d="m268.558594 230.425781h13.054687c4.714844 0 8.535157-3.820312 8.535157-8.53125v-42.667969c0-4.710937 3.820312-8.53125 8.53125-8.53125h34.132812c4.714844 0 8.535156 3.820313 8.535156 8.53125v42.667969c0 4.710938 3.820313 8.53125 8.53125 8.53125h34.136719c4.710937 0 8.53125 3.820313 8.53125 8.535157v34.132812c0 4.714844-3.820313 8.535156-8.53125 8.535156h-34.136719c-4.710937 0-8.53125 3.820313-8.53125 8.53125v110.933594c0 4.714844-3.820312 8.535156-8.535156 8.535156h-34.132812c-4.710938 0-8.53125-3.820312-8.53125-8.535156v-110.933594c0-4.710937-3.820313-8.53125-8.535157-8.53125h-34.132812c-4.710938 0-8.53125-3.820312-8.53125-8.535156v-23.039062zm0 0" fill="#35495e"/><path d="m.015625 465.546875h512v46.480469h-512zm0 0" fill="#8bc34a"/><path d="m358.414062 477.894531h-196.265624c-4.714844 0-8.535157-3.820312-8.535157-8.535156 0-4.710937 3.820313-8.53125 8.535157-8.53125h196.265624c4.710938 0 8.535157 3.820313 8.535157 8.53125 0 4.714844-3.824219 8.535156-8.535157 8.535156zm0 0" fill="#4c8056"/><path d="m204.6875 230.503906 37.253906 21.257813c8.8125 5.039062 20.042969 1.984375 25.089844-6.828125 5.039062-8.8125 1.984375-20.042969-6.828125-25.085938l-37.253906-21.335937" fill="#ad1457"/><path d="m512.015625 469.359375v-247.464844c0-84.832031-68.769531-153.601562-153.601563-153.601562h-42.667968c-15.636719.027343-31.175782 2.449219-46.078125 7.175781-21.152344-46.8125-68.191407-76.5-119.550781-75.4414062-69.058594 1.3164062-125.132813 56.2109372-127.917969 125.2265622-1.410157 25.84375 2.242187 51.714844 10.746093 76.160156l-19.363281 11.09375c-9.449219 5.402344-14.710937 15.964844-13.339843 26.765626 1.371093 10.796874 9.113281 19.703124 19.613281 22.574218 2.320312.632813 4.71875.953125 7.125.957032 4.671875-.003907 9.261719-1.234376 13.3125-3.558594l15.972656-9.191406c16.238281 25.648437 36.933594 48.191406 61.105469 66.558593 14.210937 10.738281 29.171875 20.433594 44.777344 29.015625v103.167969l-28.101563-28.101563c-3.347656-3.234374-8.671875-3.1875-11.960937.105469-3.292969 3.289063-3.339844 8.613281-.105469 11.960938l28.101562 28.066406h-141.535156c-3.230469 0-6.1875 1.824219-7.632813 4.714844-1.445312 2.890625-1.132812 6.351562.804688 8.9375l25.601562 34.132812c1.828126 2.441407 4.820313 3.71875 7.847657 3.351563 3.027343-.363282 5.628906-2.316406 6.828125-5.117188 1.195312-2.804687.808594-6.035156-1.023438-8.472656l-15.359375-20.480469h21.335938l23.039062 30.71875c1.828125 2.441407 4.820313 3.71875 7.847657 3.351563 3.027343-.363282 5.628906-2.316406 6.824218-5.117188 1.199219-2.804687.808594-6.035156-1.019531-8.472656l-15.359375-20.480469h21.332031l23.039063 30.71875c1.832031 2.441407 4.820312 3.71875 7.847656 3.351563 3.027344-.363282 5.628906-2.316406 6.828125-5.117188 1.199219-2.804687.808594-6.035156-1.019531-8.472656l-15.359375-20.480469h21.332031l23.039062 30.71875c2.828126 3.769531 8.175782 4.535157 11.945313 1.707031 3.773437-2.828124 4.535156-8.175781 1.707031-11.945312l-15.359375-20.480469h21.335938l23.039062 30.71875c2.828125 3.769531 8.175781 4.535157 11.945313 1.707031 3.769531-2.828124 4.535156-8.175781 1.707031-11.945312l-15.359375-20.480469h21.332031l23.039063 30.71875c2.828125 3.769531 8.179687 4.535157 11.949218 1.707031 3.769532-2.828124 4.535157-8.175781 1.707032-11.945312l-15.359375-20.480469h21.332031l23.039062 30.71875c1.828126 2.441407 4.820313 3.71875 7.847657 3.351563 3.027343-.363282 5.628906-2.316406 6.828125-5.117188 1.195312-2.804687.808594-6.035156-1.023438-8.472656l-15.359375-20.480469h21.335938l23.039062 30.71875c1.828125 2.441407 4.820313 3.71875 7.847657 3.351563 3.027343-.363282 5.628906-2.316406 6.824218-5.117188 1.199219-2.804687.808594-6.035156-1.019531-8.472656l-15.359375-20.480469h21.332031l23.039063 30.71875c2.828125 3.769531 8.179687 4.535157 11.949218 1.707031 3.769532-2.828124 4.535157-8.175781 1.707032-11.945312l-15.359375-20.480469h21.332031l23.039062 30.71875c1.828126 2.441407 4.820313 3.71875 7.847657 3.351563 3.027343-.363282 5.628906-2.316406 6.828125-5.117188 1.195312-2.804687.808594-6.035156-1.023438-8.472656l-15.359375-20.480469h21.335938l23.039062 30.71875c2.828125 3.769531 8.175781 4.535157 11.945313 1.707031 3.769531-2.828124 4.535156-8.175781 1.707031-11.945312l-15.359375-20.480469h21.332031l23.039063 30.71875c1.832031 2.441407 4.820312 3.71875 7.847656 3.351563 3.027344-.363282 5.628906-2.316406 6.828125-5.117188 1.199219-2.804687.808594-6.035156-1.019531-8.472656l-15.359375-20.480469h8.53125c4.714843 0 8.535156-3.820312 8.535156-8.535156zm-440.917969-227.761719 6.449219-3.6875c3.96875-2.394531 5.300781-7.515625 3.003906-11.539062-2.300781-4.023438-7.390625-5.476563-11.46875-3.273438l-37.253906 21.28125c-4.730469 2.695313-10.746094 1.054688-13.449219-3.667968-2.695312-4.726563-1.054687-10.742188 3.667969-13.441407l37.257813-21.289062c3.890624-2.425781 5.171874-7.496094 2.894531-11.480469-2.277344-3.980469-7.296875-5.449219-11.359375-3.324219l-2.835938 1.621094c-7.046875-21.449219-10.019531-44.023437-8.769531-66.5625 2.257813-59.988281 50.863281-107.832031 110.882813-109.140625 61.199218 0 111.015624 44.867188 111.015624 100.019531 0 24.804688-13.96875 47.742188-28.757812 72.03125-.742188 1.21875-1.492188 2.472657-2.234375 3.703125l-2.945313-1.707031c-4.089843-2.339844-9.304687-.917969-11.644531 3.171875-2.34375 4.09375-.921875 9.308594 3.171875 11.648438l9.984375 5.691406.042969.042968h.078125l27.144531 15.515626c4.722656 2.699218 6.363282 8.714843 3.667969 13.4375-2.710937 4.71875-8.71875 6.355468-13.449219 3.671874l-37.253906-21.28125c-2.652344-1.601562-5.964844-1.640624-8.652344-.097656-2.6875 1.539063-4.328125 4.410156-4.289062 7.507813.039062 3.097656 1.75 5.929687 4.472656 7.402343l4.796875 2.738282c-13.792969 34.460937-13.769531 72.914062.070313 107.359375-27.542969-11.933594-53.605469-27.03125-77.65625-44.988281-22.335938-16.949219-41.496094-37.726563-56.582032-61.363282zm210.515625-2.636718c9.425781 0 17.066407-7.640626 17.066407-17.066407v-42.667969h34.132812v42.667969c0 9.425781 7.640625 17.066407 17.066406 17.066407h34.136719v34.132812h-34.136719c-9.425781 0-17.066406 7.640625-17.066406 17.066406v110.933594h-34.132812v-110.933594c0-9.425781-7.640626-17.066406-17.066407-17.066406h-34.132812v-10.8125c1.167969.226562 2.347656.378906 3.53125.453125 13.675781.039063 25.199219-10.191406 26.78125-23.773437zm-93.175781 221.867187 23.039062-28.800781c2.949219-3.679688 2.351563-9.050782-1.328124-11.996094-3.683594-2.949219-9.054688-2.351562-12 1.328125l-18.933594 23.671875v-90.496094c9.617187 4.789063 19.625 9.386719 30.207031 13.824219 2.917969 1.253906 5.855469 2.433594 8.78125 3.617187 1.015625.417969 2.101563.628907 3.199219.625 2.933594-.003906 5.660156-1.511718 7.21875-3.996093 1.5625-2.484375 1.734375-5.597657.460937-8.242188-24.011719-49.722656-18.59375-85.152343-8.839843-111.164062l10.171874 5.828125v18.066406c0 9.425781 7.640626 17.066406 17.066407 17.066406h34.132812v110.933594c0 9.425781 7.640625 17.066406 17.066407 17.066406h34.132812c9.425781 0 17.066406-7.640625 17.066406-17.066406v-110.933594h34.136719c9.425781 0 17.066406-7.640625 17.066406-17.066406v-34.132812c0-9.425782-7.640625-17.066407-17.066406-17.066407h-34.136719v-42.667969c0-9.425781-7.640625-17.066406-17.066406-17.066406h-34.132812c-9.425782 0-17.066407 7.640625-17.066407 17.066406v42.667969h-7.679687c-2.320313-3.910156-5.609375-7.160156-9.546875-9.4375l-19.484375-11.09375c.667968-1.101562 1.332031-2.210937 1.996094-3.304687 16.0625-26.382813 31.242187-51.316406 31.242187-80.902344-.027344-8.582031-1.082031-17.132812-3.140625-25.464844 41.441406-12.984375 86.589844-5.472656 121.589844 20.234375 35.003906 25.707031 55.683594 66.539063 55.691406 109.96875v226.867188l-19.566406-19.566407c-3.347656-3.234374-8.671875-3.1875-11.964844.101563-3.289062 3.292969-3.335938 8.613281-.101562 11.964844l19.566406 19.566406zm286.183594 0 10.941406-21.785156c2.105469-4.21875.394531-9.347657-3.824219-11.453125-4.21875-2.105469-9.34375-.394532-11.453125 3.824218l-.851562 1.800782v-211.320313c.109375-40.757812-16.09375-79.867187-44.996094-108.605469-8.871094-8.800781-18.777344-16.492187-29.5-22.902343 59.117188 16.359375 100.039062 70.167969 100.011719 131.507812v238.933594zm0 0"/><path d="m115.214844 119.492188c12.769531.054687 24.148437-8.046876 28.277344-20.132813 4.125-12.085937.078124-25.457031-10.058594-33.222656 3.195312-2.636719 4-7.203125 1.894531-10.769531-2.429687-4.039063-7.667969-5.347657-11.707031-2.917969l-42.667969 25.597656c-3.285156 1.976563-4.851563 5.898437-3.824219 9.59375 1.023438 3.695313 4.386719 6.253906 8.21875 6.253906.136719 0 .28125-.050781.417969-.058593 2.066406 14.6875 14.617187 25.621093 29.449219 25.65625zm0-17.066407c-7.070313 0-12.800782-5.730469-12.800782-12.796875.027344-1.863281.480469-3.691406 1.324219-5.351562l12.277344-7.363282c6.65625.710938 11.640625 6.4375 11.429687 13.128907-.210937 6.691406-5.542968 12.089843-12.230468 12.382812zm0 0"/><path d="m170.679688 89.628906c-.03125 15.660156 12.066406 28.671875 27.691406 29.78125 15.621094 1.109375 29.4375-10.066406 31.617187-25.574218.136719 0 .28125.058593.417969.058593 3.835938.003907 7.199219-2.554687 8.226562-6.25 1.027344-3.695312-.539062-7.621093-3.824218-9.597656l-42.667969-25.597656c-4.039063-2.429688-9.277344-1.121094-11.707031 2.917969-2.105469 3.566406-1.300782 8.132812 1.894531 10.769531-7.3125 5.601562-11.613281 14.277343-11.648437 23.492187zm29.867187 12.796875c-6.71875-.242187-12.101563-5.644531-12.324219-12.363281-.226562-6.71875 4.785156-12.464844 11.472656-13.160156l12.269532 7.367187c.867187 1.65625 1.339844 3.488281 1.382812 5.359375 0 7.066406-5.730468 12.796875-12.800781 12.796875zm0 0"/><path d="m208.492188 175.5 20.054687-25.074219c2.945313-3.679687 2.347656-9.050781-1.332031-11.996093-3.679688-2.945313-9.054688-2.351563-12 1.332031l-20.050782 25.070312c-1.753906 2.121094-4.359374 3.351563-7.109374 3.351563-2.761719-.039063-5.347657-1.355469-7.007813-3.566406-4.515625-6.027344-11.429687-9.800782-18.945313-10.335938-7.515624-.535156-14.894531 2.21875-20.222656 7.546875l-6.109375 6.109375c-1.808593 1.78125-4.289062 2.710938-6.824219 2.558594-2.539062-.125-4.902343-1.339844-6.476562-3.335938l-21.949219-27.433594c-1.90625-2.382812-4.9375-3.566406-7.949219-3.105468-3.015624.460937-5.558593 2.492187-6.667968 5.332031-1.109375 2.84375-.617188 6.058594 1.289062 8.441406l21.945313 27.433594c4.621093 5.785156 11.484375 9.332031 18.878906 9.753906h1.421875c6.894531 0 13.503906-2.734375 18.382812-7.605469l6.109376-6.109374c1.832031-1.828126 4.367187-2.769532 6.949218-2.585938 2.582032.1875 4.953125 1.480469 6.507813 3.550781 4.804687 6.449219 12.34375 10.289063 20.386719 10.386719 8.066406.273438 15.773437-3.339844 20.71875-9.71875zm0 0"/></svg>